<svg width="580" height="84" viewBox="0 0 580 84" fill="none" xmlns="http://www.w3.org/2000/svg">
<path d="M113.588 69.1618L119.531 55.6388H138.491C139.018 54.8661 139.344 54.2479 139.53 53.5524C141.332 46.8296 126.341 43.6614 129.343 32.4566C129.881 30.4475 130.698 28.5929 131.815 26.8156L122.864 14.8381H166.864L160.879 28.5156H145.199C144.453 29.2111 144.106 29.9066 143.837 30.9111C142.388 36.3203 157.027 40.8022 153.838 52.7024C152.057 59.348 146.765 65.0663 139.588 69.1618H113.588Z" fill="black"/>
<path d="M193.957 14.8381L177.34 51.7751C177.136 52.2388 176.991 52.7797 176.887 53.1661C176.287 55.407 177.537 56.4116 180.417 56.4116C183.617 56.4116 187.069 55.1752 188.7 51.7751L205.397 14.8381H219.157L202.685 51.2342C197.215 63.289 187.535 69.8573 174.575 69.8573C164.655 69.8573 159.719 64.989 162.287 55.407C162.659 54.0161 163.174 52.3933 164.112 50.3842L174.748 26.8156L165.797 14.8381H193.957Z" fill="black"/>
<path d="M261.043 14.8381C264.067 18.7791 264.801 23.8019 263.166 29.9066C260.867 38.484 255.202 45.5932 245.99 51.3115H231.83L223.767 69.1618H210.007L228.954 26.8156L220.083 14.8381H261.043ZM250.463 28.052H241.903L236.699 39.4113H244.219C247.424 36.7067 249.046 34.2339 250.081 30.3702C250.288 29.5975 250.336 28.8247 250.463 28.052Z" fill="black"/>
<path d="M310.176 14.8381L304.271 28.5156H284.911L281.282 36.0885H295.042L290.019 47.3705H276.419L272.683 55.6388H292.683L286.66 69.1618H252.82L271.766 26.8156L262.816 14.8381H310.176Z" fill="black"/>
<path d="M327.156 45.5159H323.556L313.22 69.1618H299.46L318.407 26.8156L309.456 14.8381H350.816C353.348 17.9291 353.768 22.3337 352.298 27.8202C350.704 33.7703 346.878 38.7931 340.72 42.9659L340.66 69.1618H326.1L327.156 45.5159ZM338.618 27.8202H331.578L327.315 36.8612H333.555C335.934 34.8521 337.497 32.3021 338.325 29.2111C338.511 28.5156 338.636 28.052 338.618 27.8202Z" fill="black"/>
<path d="M343.119 69.1618L349.063 55.6388H368.023C368.55 54.8661 368.875 54.2479 369.062 53.5524C370.863 46.8296 355.872 43.6614 358.874 32.4566C359.413 30.4475 360.23 28.5929 361.346 26.8156L352.395 14.8381H396.395L390.41 28.5156H374.73C373.984 29.2111 373.638 29.9066 373.368 30.9111C371.919 36.3203 386.558 40.8022 383.369 52.7024C381.589 59.348 376.297 65.0663 369.119 69.1618H343.119Z" fill="black"/>
<path d="M411.134 70.0118C397.774 70.0118 392.866 59.9662 396.551 46.2114C398.497 38.9476 402.299 32.2248 407.028 26.8156L398.078 14.8381H431.998C444.398 14.8381 450.292 24.1883 446.565 38.0976C441.865 55.6388 425.374 70.0118 411.134 70.0118ZM427.766 27.0474C422.646 27.0474 413.529 33.3066 410.444 44.8205C408.291 52.857 411.732 57.0298 415.572 57.0298C419.892 57.0298 429.747 51.0024 432.978 38.9476C435.089 31.0657 431.766 27.0474 427.766 27.0474Z" fill="black"/>
<path d="M475.484 14.8381L477.708 42.9659L490.365 14.8381H503.484L479.089 69.1618H465.809L464.101 41.4977L451.329 69.1618H438.289L457.235 26.8156L448.284 14.8381H475.484Z" fill="black"/>
<path d="M532.226 14.8381L507.83 69.1618H494.07L513.016 26.8156L504.066 14.8381H532.226Z" fill="black"/>
<path d="M579.895 14.8381L573.91 28.5156H559.67C554.145 31.2202 547.341 36.0112 545.271 43.7386C543.117 51.7751 545.255 54.2479 547.442 55.6388H561.202L555.099 69.1618H540.299C530.993 65.3754 528.136 56.3343 531.159 45.0523C532.608 39.6431 536.291 32.7657 542.365 26.8156L533.414 14.8381H579.895Z" fill="black"/>
<rect x="10" y="10" width="65" height="65" fill="white"/>
<path fill-rule="evenodd" clip-rule="evenodd" d="M16 0C7.16344 0 0 7.16344 0 16V68C0 76.8366 7.16344 84 16 84H68C76.8366 84 84 76.8366 84 68V16C84 7.16344 76.8366 0 68 0H16ZM21.4889 55.6388L15.5454 69.1618H41.5454C48.7228 65.0663 54.015 59.348 55.7957 52.7024C57.7003 45.5944 53.2445 41.133 49.6558 37.5399C47.2363 35.1173 45.211 33.0894 45.7946 30.9111C46.0638 29.9066 46.4102 29.2111 47.1565 28.5156H62.8365L68.8214 14.8381H24.8214L33.772 26.8156C32.6558 28.5929 31.8389 30.4475 31.3005 32.4566C29.6087 38.7706 33.6305 42.5326 37.1415 45.8168C39.8611 48.3608 42.2742 50.618 41.4879 53.5524C41.3016 54.2479 40.9759 54.8661 40.4489 55.6388H21.4889Z" fill="black"/>
</svg>
